<svg xmlns="http://www.w3.org/2000/svg" xmlns:xlink="http://www.w3.org/1999/xlink" width="128" zoomAndPan="magnify" viewBox="0 0 96 30.000001" height="40" preserveAspectRatio="xMidYMid meet" version="1.0"><defs><g/><clipPath id="b9c4b4d150"><path d="M 1.546875 0 L 94.449219 0 L 94.449219 29.03125 L 1.546875 29.03125 Z M 1.546875 0 " clip-rule="nonzero"/></clipPath></defs><g clip-path="url(#b9c4b4d150)"><path fill="#ffffff" d="M 1.546875 0 L 94.453125 0 L 94.453125 29.03125 L 1.546875 29.03125 Z M 1.546875 0 " fill-opacity="1" fill-rule="nonzero"/><path fill="#ffffff" d="M 1.546875 0 L 94.453125 0 L 94.453125 29.03125 L 1.546875 29.03125 Z M 1.546875 0 " fill-opacity="1" fill-rule="nonzero"/></g><g fill="#1e1212" fill-opacity="1"><g transform="translate(18.003367, 18.870969)"><g><path d="M 0.511719 0 L 3.492188 0 L 3.492188 -0.246094 C 2.910156 -0.414062 2.738281 -0.851562 2.738281 -2.398438 L 2.738281 -7.535156 C 3.703125 -8.328125 4.722656 -8.953125 5.761719 -8.953125 C 7.421875 -8.953125 8.253906 -7.875 8.253906 -5.910156 L 8.253906 -2.398438 C 8.253906 -0.851562 8.082031 -0.414062 7.496094 -0.246094 L 7.496094 0 L 10.480469 0 L 10.480469 -0.246094 C 9.894531 -0.414062 9.726562 -0.851562 9.726562 -2.398438 L 9.726562 -6.289062 C 9.726562 -8.5 8.59375 -9.574219 6.742188 -9.574219 C 5.289062 -9.574219 3.832031 -8.726562 2.738281 -7.835938 L 2.738281 -15.128906 L 2.570312 -15.257812 L 0.511719 -14.351562 L 0.511719 -14.144531 C 1.019531 -13.917969 1.265625 -13.730469 1.265625 -12.40625 L 1.265625 -2.398438 C 1.265625 -0.851562 1.09375 -0.414062 0.511719 -0.246094 Z M 0.511719 0 "/></g></g></g><g fill="#1e1212" fill-opacity="1"><g transform="translate(27.80273, 18.870969)"><g><path d="M 7.914062 0 L 9.554688 0 L 9.554688 -0.246094 C 8.96875 -0.414062 8.800781 -0.851562 8.800781 -2.398438 L 8.800781 -6.175781 C 8.800781 -8.308594 7.742188 -9.574219 5.457031 -9.574219 C 3.816406 -9.574219 2.4375 -8.761719 1.359375 -7.421875 L 1.53125 -7.269531 C 2.472656 -8.421875 3.570312 -8.953125 4.703125 -8.953125 C 6.308594 -8.953125 7.253906 -8.101562 7.347656 -6.269531 L 4.890625 -5.609375 C 2.644531 -4.984375 0.660156 -4.25 0.660156 -2.285156 C 0.660156 -0.660156 1.90625 0.1875 3.304688 0.1875 C 5.175781 0.1875 6.761719 -1.644531 7.347656 -3.964844 L 7.347656 -0.566406 C 7.347656 -0.207031 7.535156 0 7.914062 0 Z M 2.078125 -2.8125 C 2.058594 -4.363281 3.570312 -4.984375 4.96875 -5.382812 L 7.347656 -6.023438 L 7.347656 -5.457031 C 7.328125 -3.476562 6.023438 -0.925781 4.003906 -0.925781 C 2.925781 -0.925781 2.078125 -1.585938 2.078125 -2.8125 Z M 2.078125 -2.8125 "/></g></g></g><g fill="#1e1212" fill-opacity="1"><g transform="translate(36.676861, 18.870969)"><g><path d="M 5.722656 0.171875 C 8.855469 0.152344 10.59375 -2.324219 10.59375 -4.96875 C 10.59375 -7.761719 8.953125 -9.574219 6.761719 -9.574219 C 5.308594 -9.574219 4.003906 -8.839844 2.984375 -8.082031 L 2.984375 -9.460938 L 2.8125 -9.59375 L 0.753906 -8.6875 L 0.753906 -8.480469 C 1.265625 -8.253906 1.511719 -8.0625 1.511719 -6.742188 L 1.511719 2.699219 C 1.511719 4.25 1.320312 4.683594 0.753906 4.855469 L 0.753906 5.097656 L 3.738281 5.097656 L 3.738281 4.855469 C 3.152344 4.683594 2.984375 4.25 2.984375 2.699219 L 2.984375 -0.660156 C 3.703125 -0.1875 4.683594 0.171875 5.722656 0.171875 Z M 2.984375 -3.117188 L 2.984375 -7.78125 C 3.777344 -8.386719 4.664062 -8.933594 5.761719 -8.933594 C 8.402344 -8.933594 9.234375 -5.96875 9.234375 -3.871094 C 9.234375 -1.679688 8.308594 -0.1875 6.328125 -0.1875 C 4.625 -0.1875 2.984375 -1.832031 2.984375 -3.117188 Z M 2.984375 -3.117188 "/></g></g></g><g fill="#1e1212" fill-opacity="1"><g transform="translate(46.948283, 18.870969)"><g><path d="M 5.722656 0.171875 C 8.855469 0.152344 10.59375 -2.324219 10.59375 -4.96875 C 10.59375 -7.761719 8.953125 -9.574219 6.761719 -9.574219 C 5.308594 -9.574219 4.003906 -8.839844 2.984375 -8.082031 L 2.984375 -9.460938 L 2.8125 -9.59375 L 0.753906 -8.6875 L 0.753906 -8.480469 C 1.265625 -8.253906 1.511719 -8.0625 1.511719 -6.742188 L 1.511719 2.699219 C 1.511719 4.25 1.320312 4.683594 0.753906 4.855469 L 0.753906 5.097656 L 3.738281 5.097656 L 3.738281 4.855469 C 3.152344 4.683594 2.984375 4.25 2.984375 2.699219 L 2.984375 -0.660156 C 3.703125 -0.1875 4.683594 0.171875 5.722656 0.171875 Z M 2.984375 -3.117188 L 2.984375 -7.78125 C 3.777344 -8.386719 4.664062 -8.933594 5.761719 -8.933594 C 8.402344 -8.933594 9.234375 -5.96875 9.234375 -3.871094 C 9.234375 -1.679688 8.308594 -0.1875 6.328125 -0.1875 C 4.625 -0.1875 2.984375 -1.832031 2.984375 -3.117188 Z M 2.984375 -3.117188 "/></g></g></g><g fill="#1e1212" fill-opacity="1"><g transform="translate(57.219702, 18.870969)"><g><path d="M 5.15625 0.1875 C 7.175781 0.1875 8.648438 -1.152344 9.613281 -2.472656 L 9.441406 -2.644531 C 8.574219 -1.660156 7.535156 -1 6.082031 -1 C 3.625 -1 2.019531 -2.777344 2.019531 -5.363281 C 2.019531 -5.664062 2.039062 -5.949219 2.078125 -6.230469 L 9.460938 -6.230469 C 9.40625 -8.027344 8.027344 -9.574219 5.648438 -9.574219 C 3.003906 -9.574219 0.679688 -7.515625 0.679688 -4.4375 C 0.679688 -1.320312 3.078125 0.1875 5.15625 0.1875 Z M 2.132812 -6.476562 C 2.4375 -8.0625 3.417969 -9.253906 5.023438 -9.234375 C 6.742188 -9.234375 7.761719 -7.742188 7.949219 -6.476562 Z M 2.132812 -6.476562 "/></g></g></g><g fill="#1e1212" fill-opacity="1"><g transform="translate(66.22601, 18.870969)"><g><path d="M 0.605469 0 L 3.589844 0 L 3.589844 -0.246094 C 3.023438 -0.414062 2.832031 -0.851562 2.832031 -2.398438 L 2.832031 -7.535156 C 3.796875 -8.328125 4.816406 -8.953125 5.855469 -8.953125 C 7.515625 -8.953125 8.347656 -7.875 8.347656 -5.910156 L 8.347656 -2.398438 C 8.347656 -0.851562 8.175781 -0.414062 7.59375 -0.246094 L 7.59375 0 L 10.574219 0 L 10.574219 -0.246094 C 9.992188 -0.414062 9.820312 -0.851562 9.820312 -2.398438 L 9.820312 -6.289062 C 9.820312 -8.5 8.6875 -9.574219 6.835938 -9.574219 C 5.382812 -9.574219 3.929688 -8.726562 2.832031 -7.835938 L 2.832031 -9.460938 L 2.683594 -9.59375 L 0.605469 -8.6875 L 0.605469 -8.480469 C 1.132812 -8.253906 1.359375 -8.0625 1.359375 -6.742188 L 1.359375 -2.398438 C 1.359375 -0.851562 1.191406 -0.414062 0.605469 -0.246094 Z M 0.605469 0 "/></g></g></g></svg>